<mxfile host="app.diagrams.net" modified="2023-07-02T19:10:05.165Z" agent="Mozilla/5.0 (Windows NT 10.0; Win64; x64) AppleWebKit/537.36 (KHTML, like Gecko) Chrome/114.0.0.0 Safari/537.36" etag="0to1mb3UvmQsiFOo5VzZ" version="21.5.2" type="github">
  <diagram name="Page-1" id="jnM4FIaVRioYchtktZdf">
    <mxGraphModel dx="1685" dy="1503" grid="1" gridSize="10" guides="1" tooltips="1" connect="1" arrows="1" fold="1" page="1" pageScale="1" pageWidth="850" pageHeight="1100" math="0" shadow="0">
      <root>
        <mxCell id="0" />
        <mxCell id="1" parent="0" />
        <mxCell id="Jmnt9u7fg5AIPMiEPAvG-105" value="" style="rounded=0;whiteSpace=wrap;html=1;fillColor=#f5f5f5;strokeColor=#666666;opacity=40;fontColor=#333333;" parent="1" vertex="1">
          <mxGeometry x="960.01" y="110" width="399.99" height="760" as="geometry" />
        </mxCell>
        <mxCell id="H4ZSS06QnPCmLtV-XADn-3" style="edgeStyle=orthogonalEdgeStyle;rounded=0;orthogonalLoop=1;jettySize=auto;html=1;entryX=0.5;entryY=0;entryDx=0;entryDy=0;fillColor=#f8cecc;strokeColor=#b85450;" edge="1" parent="1" source="Jmnt9u7fg5AIPMiEPAvG-2">
          <mxGeometry relative="1" as="geometry">
            <mxPoint x="1419.4399999999998" y="360" as="targetPoint" />
            <Array as="points">
              <mxPoint x="1420" y="340" />
              <mxPoint x="1420" y="340" />
            </Array>
          </mxGeometry>
        </mxCell>
        <mxCell id="Jmnt9u7fg5AIPMiEPAvG-2" value="Methanol&lt;br&gt;Fill Tank" style="shape=mxgraph.pid.vessels.tank;html=1;pointerEvents=1;align=center;verticalLabelPosition=middle;verticalAlign=middle;dashed=0;labelPosition=center;fillColor=#f8cecc;strokeColor=#b85450;" parent="1" vertex="1">
          <mxGeometry x="1389.94" y="160" width="59" height="160" as="geometry" />
        </mxCell>
        <mxCell id="Jmnt9u7fg5AIPMiEPAvG-3" value="Nitrous&lt;br&gt;Oxide Fill" style="shape=mxgraph.pid.vessels.tank;html=1;pointerEvents=1;align=center;verticalLabelPosition=middle;verticalAlign=middle;dashed=0;labelPosition=center;fillColor=#dae8fc;strokeColor=#6c8ebf;" parent="1" vertex="1">
          <mxGeometry x="2065" y="19" width="59" height="160" as="geometry" />
        </mxCell>
        <mxCell id="Jmnt9u7fg5AIPMiEPAvG-4" value="Nitrogen&lt;br&gt;Ground&lt;br&gt;Tank" style="shape=mxgraph.pid.vessels.tank;html=1;pointerEvents=1;align=center;verticalLabelPosition=middle;verticalAlign=middle;dashed=0;labelPosition=center;fillColor=#d5e8d4;strokeColor=#82b366;" parent="1" vertex="1">
          <mxGeometry x="990.51" y="160" width="59" height="160" as="geometry" />
        </mxCell>
        <mxCell id="Jmnt9u7fg5AIPMiEPAvG-6" value="" style="verticalLabelPosition=bottom;align=center;html=1;verticalAlign=top;pointerEvents=1;dashed=0;shape=mxgraph.pid2valves.valve;valveType=gate;actuator=man;rotation=-90;fillColor=#d5e8d4;strokeColor=#82b366;" parent="1" vertex="1">
          <mxGeometry x="1000.51" y="320" width="39" height="40" as="geometry" />
        </mxCell>
        <mxCell id="Jmnt9u7fg5AIPMiEPAvG-7" value="" style="verticalLabelPosition=bottom;align=center;html=1;verticalAlign=top;pointerEvents=1;dashed=0;shape=mxgraph.pid2valves.valve;valveType=gate;actuator=man;rotation=-90;fillColor=#dae8fc;strokeColor=#6c8ebf;" parent="1" vertex="1">
          <mxGeometry x="2075" y="179" width="39" height="40" as="geometry" />
        </mxCell>
        <mxCell id="Jmnt9u7fg5AIPMiEPAvG-71" style="edgeStyle=orthogonalEdgeStyle;rounded=0;orthogonalLoop=1;jettySize=auto;html=1;entryX=0;entryY=0;entryDx=78.99999999999999;entryDy=10;entryPerimeter=0;fillColor=#d5e8d4;strokeColor=#82b366;endArrow=none;endFill=0;" parent="1" source="Jmnt9u7fg5AIPMiEPAvG-8" target="Jmnt9u7fg5AIPMiEPAvG-9" edge="1">
          <mxGeometry relative="1" as="geometry" />
        </mxCell>
        <mxCell id="Jmnt9u7fg5AIPMiEPAvG-8" value="1/4 FNPT -&lt;br style=&quot;font-size: 8px;&quot;&gt;&amp;nbsp;1/4 SW" style="shape=trapezoid;perimeter=trapezoidPerimeter;whiteSpace=wrap;html=1;fixedSize=1;fontSize=8;align=center;fillColor=#d5e8d4;strokeColor=#82b366;" parent="1" vertex="1">
          <mxGeometry x="985.51" y="395" width="69" height="35" as="geometry" />
        </mxCell>
        <mxCell id="Jmnt9u7fg5AIPMiEPAvG-72" style="edgeStyle=orthogonalEdgeStyle;rounded=0;orthogonalLoop=1;jettySize=auto;html=1;entryX=0.505;entryY=1.082;entryDx=0;entryDy=0;entryPerimeter=0;fillColor=#d5e8d4;strokeColor=#82b366;endArrow=none;endFill=0;" parent="1" source="Jmnt9u7fg5AIPMiEPAvG-9" target="Jmnt9u7fg5AIPMiEPAvG-12" edge="1">
          <mxGeometry relative="1" as="geometry" />
        </mxCell>
        <mxCell id="Jmnt9u7fg5AIPMiEPAvG-74" style="edgeStyle=orthogonalEdgeStyle;rounded=0;orthogonalLoop=1;jettySize=auto;html=1;entryX=0;entryY=0;entryDx=78.99999999999999;entryDy=10;entryPerimeter=0;exitX=0;exitY=0;exitDx=0;exitDy=10;exitPerimeter=0;fillColor=#d5e8d4;strokeColor=#82b366;endArrow=none;endFill=0;" parent="1" source="Jmnt9u7fg5AIPMiEPAvG-9" target="Jmnt9u7fg5AIPMiEPAvG-10" edge="1">
          <mxGeometry relative="1" as="geometry">
            <Array as="points" />
          </mxGeometry>
        </mxCell>
        <mxCell id="Jmnt9u7fg5AIPMiEPAvG-9" value="&#xa;&lt;span style=&quot;color: rgb(0, 0, 0); font-family: Helvetica; font-size: 8px; font-style: normal; font-variant-ligatures: normal; font-variant-caps: normal; font-weight: 400; letter-spacing: normal; orphans: 2; text-align: center; text-indent: 0px; text-transform: none; widows: 2; word-spacing: 0px; -webkit-text-stroke-width: 0px; background-color: rgb(251, 251, 251); text-decoration-thickness: initial; text-decoration-style: initial; text-decoration-color: initial; float: none; display: inline !important;&quot;&gt;1/4 FBSPP&lt;/span&gt;&#xa;&#xa;" style="shape=tee;whiteSpace=wrap;html=1;rotation=-90;labelPosition=center;verticalLabelPosition=middle;align=center;verticalAlign=middle;dx=20;dy=20;fillColor=#d5e8d4;strokeColor=#82b366;" parent="1" vertex="1">
          <mxGeometry x="1010.51" y="458.66" width="79" height="80" as="geometry" />
        </mxCell>
        <mxCell id="Jmnt9u7fg5AIPMiEPAvG-76" style="edgeStyle=orthogonalEdgeStyle;rounded=0;orthogonalLoop=1;jettySize=auto;html=1;fillColor=#d5e8d4;strokeColor=#82b366;endArrow=none;endFill=0;" parent="1" source="Jmnt9u7fg5AIPMiEPAvG-10" edge="1">
          <mxGeometry relative="1" as="geometry">
            <mxPoint x="1120" y="620.62" as="targetPoint" />
          </mxGeometry>
        </mxCell>
        <mxCell id="Jmnt9u7fg5AIPMiEPAvG-77" style="edgeStyle=orthogonalEdgeStyle;rounded=0;orthogonalLoop=1;jettySize=auto;html=1;entryX=0.5;entryY=0;entryDx=0;entryDy=0;exitX=0;exitY=0;exitDx=0;exitDy=10;exitPerimeter=0;fillColor=#d5e8d4;strokeColor=#82b366;endArrow=none;endFill=0;" parent="1" source="Jmnt9u7fg5AIPMiEPAvG-10" target="Jmnt9u7fg5AIPMiEPAvG-15" edge="1">
          <mxGeometry relative="1" as="geometry">
            <Array as="points">
              <mxPoint x="1021" y="680" />
            </Array>
          </mxGeometry>
        </mxCell>
        <mxCell id="Jmnt9u7fg5AIPMiEPAvG-10" value="1/4 SW" style="shape=tee;whiteSpace=wrap;html=1;rotation=-90;labelPosition=center;verticalLabelPosition=middle;align=center;verticalAlign=middle;fillColor=#d5e8d4;strokeColor=#82b366;" parent="1" vertex="1">
          <mxGeometry x="1011.02" y="580.62" width="79" height="80" as="geometry" />
        </mxCell>
        <mxCell id="Jmnt9u7fg5AIPMiEPAvG-11" value="" style="verticalLabelPosition=bottom;aspect=fixed;html=1;verticalAlign=top;fillColor=#d5e8d4;align=center;outlineConnect=0;shape=mxgraph.fluid_power.x11820;points=[[0.5,1,0]];rotation=90;strokeColor=#82b366;" parent="1" vertex="1">
          <mxGeometry x="1170" y="468.66" width="38.94" height="60" as="geometry" />
        </mxCell>
        <mxCell id="Jmnt9u7fg5AIPMiEPAvG-12" value="1/4 SW -&lt;br&gt;1/8 FBSPT" style="shape=trapezoid;perimeter=trapezoidPerimeter;whiteSpace=wrap;html=1;fixedSize=1;fontSize=8;align=center;rotation=90;fillColor=#d5e8d4;strokeColor=#82b366;" parent="1" vertex="1">
          <mxGeometry x="1105.09" y="479.24" width="69" height="38.84" as="geometry" />
        </mxCell>
        <mxCell id="Jmnt9u7fg5AIPMiEPAvG-13" value="1/4 SW -&lt;br&gt;1/8 BS 341 No. 3 (I think this is 5/8 FBSPP)" style="shape=trapezoid;perimeter=trapezoidPerimeter;whiteSpace=wrap;html=1;fixedSize=1;fontSize=8;align=center;rotation=90;fillColor=#d5e8d4;strokeColor=#82b366;" parent="1" vertex="1">
          <mxGeometry x="1101.5100000000002" y="601.68" width="80" height="37.87" as="geometry" />
        </mxCell>
        <mxCell id="Jmnt9u7fg5AIPMiEPAvG-14" value="" style="shape=image;verticalLabelPosition=bottom;labelBackgroundColor=default;verticalAlign=top;aspect=fixed;imageAspect=0;image=https://static.thenounproject.com/png/2260802-200.png;imageBackground=none;fillColor=#d5e8d4;strokeColor=#82b366;" parent="1" vertex="1">
          <mxGeometry x="1161.54" y="605.07" width="37.91" height="38.91" as="geometry" />
        </mxCell>
        <mxCell id="Jmnt9u7fg5AIPMiEPAvG-15" value="1/4 SW -&lt;br&gt;1/4 FBSPT" style="shape=trapezoid;perimeter=trapezoidPerimeter;whiteSpace=wrap;html=1;fixedSize=1;fontSize=8;align=center;rotation=0;fillColor=#d5e8d4;strokeColor=#82b366;" parent="1" vertex="1">
          <mxGeometry x="985.51" y="680" width="69" height="38.59" as="geometry" />
        </mxCell>
        <mxCell id="Jmnt9u7fg5AIPMiEPAvG-16" value="magic to eurocmagic" style="shape=trapezoid;perimeter=trapezoidPerimeter;whiteSpace=wrap;html=1;fixedSize=1;fontSize=8;align=center;fillColor=#d5e8d4;strokeColor=#82b366;" parent="1" vertex="1">
          <mxGeometry x="985.51" y="360" width="69" height="35" as="geometry" />
        </mxCell>
        <mxCell id="Jmnt9u7fg5AIPMiEPAvG-17" value="magic to eurocmagic" style="shape=trapezoid;perimeter=trapezoidPerimeter;whiteSpace=wrap;html=1;fixedSize=1;fontSize=8;align=center;fillColor=#dae8fc;strokeColor=#6c8ebf;" parent="1" vertex="1">
          <mxGeometry x="2060" y="219" width="69" height="35" as="geometry" />
        </mxCell>
        <mxCell id="Jmnt9u7fg5AIPMiEPAvG-18" value="" style="verticalLabelPosition=bottom;align=center;html=1;verticalAlign=top;pointerEvents=1;dashed=0;shape=mxgraph.pid2valves.valve;valveType=ball;rotation=-90;fillColor=#d5e8d4;strokeColor=#82b366;" parent="1" vertex="1">
          <mxGeometry x="1000.5100000000001" y="728.5" width="39.09" height="24.06" as="geometry" />
        </mxCell>
        <mxCell id="Jmnt9u7fg5AIPMiEPAvG-19" value="" style="verticalLabelPosition=bottom;aspect=fixed;html=1;verticalAlign=top;fillColor=#d5e8d4;align=center;outlineConnect=0;shape=mxgraph.fluid_power.x11740;points=[[0.5,0,0],[0.5,1,0]];strokeColor=#82b366;" parent="1" vertex="1">
          <mxGeometry x="1011.53" y="946.63" width="17.98" height="93.78" as="geometry" />
        </mxCell>
        <mxCell id="Jmnt9u7fg5AIPMiEPAvG-20" value="" style="endArrow=none;dashed=1;html=1;rounded=0;entryX=-0.132;entryY=0.461;entryDx=0;entryDy=0;entryPerimeter=0;strokeWidth=4;dashPattern=1 1;fillColor=#d5e8d4;strokeColor=#82b366;" parent="1" edge="1">
          <mxGeometry width="50" height="50" relative="1" as="geometry">
            <mxPoint x="1020" y="910" as="sourcePoint" />
            <mxPoint x="1019.9766600000005" y="839.99688" as="targetPoint" />
          </mxGeometry>
        </mxCell>
        <mxCell id="Jmnt9u7fg5AIPMiEPAvG-21" value="1/4&amp;nbsp; SW -&lt;br&gt;1/4 FBSPT" style="shape=trapezoid;perimeter=trapezoidPerimeter;whiteSpace=wrap;html=1;fixedSize=1;fontSize=8;align=center;rotation=0;fillColor=#d5e8d4;strokeColor=#82b366;" parent="1" vertex="1">
          <mxGeometry x="985.51" y="761.22" width="69" height="38.78" as="geometry" />
        </mxCell>
        <mxCell id="Jmnt9u7fg5AIPMiEPAvG-22" value="1/4&amp;nbsp; SW -&lt;br&gt;??" style="shape=trapezoid;perimeter=trapezoidPerimeter;whiteSpace=wrap;html=1;fixedSize=1;fontSize=8;align=center;rotation=0;fillColor=#d5e8d4;strokeColor=#82b366;" parent="1" vertex="1">
          <mxGeometry x="985.51" y="800" width="69" height="40" as="geometry" />
        </mxCell>
        <mxCell id="Jmnt9u7fg5AIPMiEPAvG-23" value="?? -&lt;br&gt;1/4 SW" style="shape=trapezoid;perimeter=trapezoidPerimeter;whiteSpace=wrap;html=1;fixedSize=1;fontSize=8;align=center;rotation=0;fillColor=#d5e8d4;strokeColor=#82b366;" parent="1" vertex="1">
          <mxGeometry x="985.51" y="911.63" width="69" height="35" as="geometry" />
        </mxCell>
        <mxCell id="Jmnt9u7fg5AIPMiEPAvG-25" value="" style="verticalLabelPosition=bottom;align=center;html=1;verticalAlign=top;pointerEvents=1;dashed=0;shape=mxgraph.pid2valves.valve;valveType=gate;actuator=man;rotation=0;fillColor=#008a00;strokeColor=#005700;fontColor=#ffffff;" parent="1" vertex="1">
          <mxGeometry x="1310" y="598.66" width="39" height="40" as="geometry" />
        </mxCell>
        <mxCell id="H4ZSS06QnPCmLtV-XADn-1" style="edgeStyle=orthogonalEdgeStyle;rounded=0;orthogonalLoop=1;jettySize=auto;html=1;entryX=0;entryY=0.5;entryDx=0;entryDy=0;entryPerimeter=0;" edge="1" parent="1" source="Jmnt9u7fg5AIPMiEPAvG-30" target="Jmnt9u7fg5AIPMiEPAvG-25">
          <mxGeometry relative="1" as="geometry" />
        </mxCell>
        <mxCell id="Jmnt9u7fg5AIPMiEPAvG-30" value="3/8 FBSPP -&lt;br&gt;1/4 FBSPP" style="shape=trapezoid;perimeter=trapezoidPerimeter;whiteSpace=wrap;html=1;fixedSize=1;fontSize=8;align=center;rotation=90;fillColor=#d5e8d4;strokeColor=#82b366;" parent="1" vertex="1">
          <mxGeometry x="1186.04" y="599.94" width="69" height="37.44" as="geometry" />
        </mxCell>
        <mxCell id="Jmnt9u7fg5AIPMiEPAvG-43" value="" style="verticalLabelPosition=bottom;aspect=fixed;html=1;verticalAlign=top;fillColor=#f8cecc;align=center;outlineConnect=0;shape=mxgraph.fluid_power.x11740;points=[[0.5,0,0],[0.5,1,0]];strokeColor=#b85450;" parent="1" vertex="1">
          <mxGeometry x="1410.96" y="946.63" width="17.98" height="93.78" as="geometry" />
        </mxCell>
        <mxCell id="Jmnt9u7fg5AIPMiEPAvG-46" value="8mm Nipple -&lt;br&gt;1/4 SW" style="shape=trapezoid;perimeter=trapezoidPerimeter;whiteSpace=wrap;html=1;fixedSize=1;fontSize=8;align=center;rotation=0;fillColor=#f8cecc;strokeColor=#b85450;" parent="1" vertex="1">
          <mxGeometry x="1384.94" y="911.63" width="69" height="35" as="geometry" />
        </mxCell>
        <mxCell id="Jmnt9u7fg5AIPMiEPAvG-48" value="1/4&amp;nbsp; SW -&lt;br&gt;??" style="shape=trapezoid;perimeter=trapezoidPerimeter;whiteSpace=wrap;html=1;fixedSize=1;fontSize=8;align=center;rotation=0;fillColor=#dae8fc;strokeColor=#6c8ebf;" parent="1" vertex="1">
          <mxGeometry x="2060" y="254" width="69" height="35" as="geometry" />
        </mxCell>
        <mxCell id="Jmnt9u7fg5AIPMiEPAvG-49" value="?? -&lt;br&gt;1/4 SW" style="shape=trapezoid;perimeter=trapezoidPerimeter;whiteSpace=wrap;html=1;fixedSize=1;fontSize=8;align=center;rotation=0;fillColor=#dae8fc;strokeColor=#6c8ebf;" parent="1" vertex="1">
          <mxGeometry x="1804.48" y="379.53" width="69" height="35" as="geometry" />
        </mxCell>
        <mxCell id="Jmnt9u7fg5AIPMiEPAvG-50" value="" style="endArrow=none;dashed=1;html=1;rounded=0;strokeWidth=4;dashPattern=1 1;fillColor=#dae8fc;strokeColor=#6c8ebf;exitX=0.5;exitY=0;exitDx=0;exitDy=0;" parent="1" source="Jmnt9u7fg5AIPMiEPAvG-49" edge="1">
          <mxGeometry width="50" height="50" relative="1" as="geometry">
            <mxPoint x="1949.94" y="379.53" as="sourcePoint" />
            <mxPoint x="2090" y="291.03" as="targetPoint" />
            <Array as="points">
              <mxPoint x="1840.06" y="330.5" />
              <mxPoint x="2090.06" y="330.5" />
            </Array>
          </mxGeometry>
        </mxCell>
        <mxCell id="Jmnt9u7fg5AIPMiEPAvG-52" value="1/4 SW -&lt;br&gt;1/4 FBSPT" style="shape=trapezoid;perimeter=trapezoidPerimeter;whiteSpace=wrap;html=1;fixedSize=1;fontSize=8;align=center;rotation=0;fillColor=#dae8fc;strokeColor=#6c8ebf;" parent="1" vertex="1">
          <mxGeometry x="1804.48" y="599.0000000000001" width="69" height="35" as="geometry" />
        </mxCell>
        <mxCell id="Jmnt9u7fg5AIPMiEPAvG-53" value="" style="verticalLabelPosition=bottom;align=center;html=1;verticalAlign=top;pointerEvents=1;dashed=0;shape=mxgraph.pid2valves.valve;valveType=ball;rotation=-90;fillColor=#dae8fc;strokeColor=#6c8ebf;" parent="1" vertex="1">
          <mxGeometry x="1819.3899999999999" y="645.41" width="39.09" height="24.06" as="geometry" />
        </mxCell>
        <mxCell id="Jmnt9u7fg5AIPMiEPAvG-54" value="1/4&amp;nbsp; SW -&lt;br&gt;1/4 FBSPT" style="shape=trapezoid;perimeter=trapezoidPerimeter;whiteSpace=wrap;html=1;fixedSize=1;fontSize=8;align=center;rotation=0;fillColor=#dae8fc;strokeColor=#6c8ebf;" parent="1" vertex="1">
          <mxGeometry x="1804.48" y="676.63" width="69" height="35" as="geometry" />
        </mxCell>
        <mxCell id="Jmnt9u7fg5AIPMiEPAvG-103" style="edgeStyle=orthogonalEdgeStyle;rounded=0;orthogonalLoop=1;jettySize=auto;html=1;entryX=0.5;entryY=0;entryDx=0;entryDy=0;endArrow=none;endFill=0;fillColor=#dae8fc;strokeColor=#6c8ebf;" parent="1" source="Jmnt9u7fg5AIPMiEPAvG-55" target="Jmnt9u7fg5AIPMiEPAvG-56" edge="1">
          <mxGeometry relative="1" as="geometry" />
        </mxCell>
        <mxCell id="Jmnt9u7fg5AIPMiEPAvG-55" value="1/4" style="shape=tee;whiteSpace=wrap;html=1;rotation=-90;labelPosition=center;verticalLabelPosition=middle;align=center;verticalAlign=middle;dx=20;dy=20;fillColor=#dae8fc;strokeColor=#6c8ebf;" parent="1" vertex="1">
          <mxGeometry x="1829.48" y="714.0000000000001" width="79" height="80" as="geometry" />
        </mxCell>
        <mxCell id="Jmnt9u7fg5AIPMiEPAvG-56" value="1/4 SW -&lt;br&gt;1/4 FBSPT" style="shape=trapezoid;perimeter=trapezoidPerimeter;whiteSpace=wrap;html=1;fixedSize=1;fontSize=8;align=center;rotation=-90;fillColor=#dae8fc;strokeColor=#6c8ebf;" parent="1" vertex="1">
          <mxGeometry x="1919.3899999999999" y="736.5000000000001" width="69" height="35" as="geometry" />
        </mxCell>
        <mxCell id="Jmnt9u7fg5AIPMiEPAvG-57" value="" style="verticalLabelPosition=bottom;align=center;html=1;verticalAlign=top;pointerEvents=1;dashed=0;shape=mxgraph.pid2valves.valve;valveType=ball;rotation=-180;fillColor=#dae8fc;strokeColor=#6c8ebf;" parent="1" vertex="1">
          <mxGeometry x="1974.3899999999999" y="741.97" width="39.09" height="24.06" as="geometry" />
        </mxCell>
        <mxCell id="Jmnt9u7fg5AIPMiEPAvG-59" value="Detailed T.H.A.N.O.S Ground Filling System P&amp;amp;ID V1.1&lt;br style=&quot;font-size: 12px;&quot;&gt;&lt;font size=&quot;1&quot;&gt;By: Martin Leung Date: 2023/07/02&lt;br&gt;&lt;/font&gt;" style="text;html=1;strokeColor=none;fillColor=none;align=center;verticalAlign=middle;whiteSpace=wrap;rounded=0;fontSize=30;" parent="1" vertex="1">
          <mxGeometry x="1000.51" y="19" width="990" height="90" as="geometry" />
        </mxCell>
        <mxCell id="Jmnt9u7fg5AIPMiEPAvG-91" style="edgeStyle=orthogonalEdgeStyle;rounded=0;orthogonalLoop=1;jettySize=auto;html=1;entryX=0;entryY=0;entryDx=79;entryDy=10;entryPerimeter=0;exitX=0;exitY=0;exitDx=0;exitDy=10;exitPerimeter=0;fillColor=#dae8fc;strokeColor=#6c8ebf;endArrow=none;endFill=0;" parent="1" source="Jmnt9u7fg5AIPMiEPAvG-62" target="Jmnt9u7fg5AIPMiEPAvG-63" edge="1">
          <mxGeometry relative="1" as="geometry" />
        </mxCell>
        <mxCell id="Jmnt9u7fg5AIPMiEPAvG-100" style="edgeStyle=orthogonalEdgeStyle;rounded=0;orthogonalLoop=1;jettySize=auto;html=1;entryX=0.5;entryY=0;entryDx=0;entryDy=0;fillColor=#dae8fc;strokeColor=#6c8ebf;endArrow=none;endFill=0;" parent="1" source="Jmnt9u7fg5AIPMiEPAvG-62" target="Jmnt9u7fg5AIPMiEPAvG-66" edge="1">
          <mxGeometry relative="1" as="geometry" />
        </mxCell>
        <mxCell id="Jmnt9u7fg5AIPMiEPAvG-62" value="1/4 SW" style="shape=tee;whiteSpace=wrap;html=1;rotation=-90;labelPosition=center;verticalLabelPosition=middle;align=center;verticalAlign=middle;dx=20;dy=20;fillColor=#dae8fc;strokeColor=#6c8ebf;" parent="1" vertex="1">
          <mxGeometry x="1829.48" y="411.65999999999997" width="79" height="80" as="geometry" />
        </mxCell>
        <mxCell id="Jmnt9u7fg5AIPMiEPAvG-101" style="edgeStyle=orthogonalEdgeStyle;rounded=0;orthogonalLoop=1;jettySize=auto;html=1;entryX=0.5;entryY=0;entryDx=0;entryDy=0;fillColor=#dae8fc;strokeColor=#6c8ebf;endArrow=none;endFill=0;" parent="1" source="Jmnt9u7fg5AIPMiEPAvG-63" target="Jmnt9u7fg5AIPMiEPAvG-67" edge="1">
          <mxGeometry relative="1" as="geometry" />
        </mxCell>
        <mxCell id="Jmnt9u7fg5AIPMiEPAvG-63" value="1/4 SW" style="shape=tee;whiteSpace=wrap;html=1;rotation=-90;labelPosition=center;verticalLabelPosition=middle;align=center;verticalAlign=middle;fillColor=#dae8fc;strokeColor=#6c8ebf;" parent="1" vertex="1">
          <mxGeometry x="1829.48" y="518.53" width="79" height="80" as="geometry" />
        </mxCell>
        <mxCell id="Jmnt9u7fg5AIPMiEPAvG-64" value="P1" style="ellipse;whiteSpace=wrap;html=1;aspect=fixed;fillColor=#dae8fc;strokeColor=#6c8ebf;" parent="1" vertex="1">
          <mxGeometry x="1978.48" y="431.19" width="37.97" height="37.97" as="geometry" />
        </mxCell>
        <mxCell id="Jmnt9u7fg5AIPMiEPAvG-66" value="1/4 SW -&lt;br&gt;1/8 NPT" style="shape=trapezoid;perimeter=trapezoidPerimeter;whiteSpace=wrap;html=1;fixedSize=1;fontSize=8;align=center;rotation=-90;fillColor=#dae8fc;strokeColor=#6c8ebf;" parent="1" vertex="1">
          <mxGeometry x="1920.48" y="434.15999999999997" width="69" height="35" as="geometry" />
        </mxCell>
        <mxCell id="Jmnt9u7fg5AIPMiEPAvG-67" value="1/4 SW -&lt;br&gt;1/4 FBSPT" style="shape=trapezoid;perimeter=trapezoidPerimeter;whiteSpace=wrap;html=1;fixedSize=1;fontSize=8;align=center;rotation=-90;fillColor=#dae8fc;strokeColor=#6c8ebf;" parent="1" vertex="1">
          <mxGeometry x="1920.48" y="541.03" width="69" height="35" as="geometry" />
        </mxCell>
        <mxCell id="Jmnt9u7fg5AIPMiEPAvG-68" value="" style="verticalLabelPosition=bottom;align=center;html=1;verticalAlign=top;pointerEvents=1;dashed=0;shape=mxgraph.pid2valves.valve;valveType=needle;rotation=0;fillColor=#dae8fc;strokeColor=#6c8ebf;" parent="1" vertex="1">
          <mxGeometry x="1978.48" y="546.53" width="40" height="24" as="geometry" />
        </mxCell>
        <mxCell id="Jmnt9u7fg5AIPMiEPAvG-83" value="" style="verticalLabelPosition=bottom;aspect=fixed;html=1;verticalAlign=top;fillColor=#dae8fc;align=center;outlineConnect=0;shape=mxgraph.fluid_power.x11740;points=[[0.5,0,0],[0.5,1,0]];strokeColor=#6c8ebf;" parent="1" vertex="1">
          <mxGeometry x="1831.0100000000002" y="957.13" width="17.98" height="93.78" as="geometry" />
        </mxCell>
        <mxCell id="Jmnt9u7fg5AIPMiEPAvG-84" value="" style="endArrow=none;dashed=1;html=1;rounded=0;entryX=-0.132;entryY=0.461;entryDx=0;entryDy=0;entryPerimeter=0;strokeWidth=4;dashPattern=1 1;fillColor=#dae8fc;strokeColor=#6c8ebf;exitX=0.5;exitY=0;exitDx=0;exitDy=0;" parent="1" source="Jmnt9u7fg5AIPMiEPAvG-86" edge="1">
          <mxGeometry width="50" height="50" relative="1" as="geometry">
            <mxPoint x="1839.9900000000002" y="894" as="sourcePoint" />
            <mxPoint x="1839.4566600000003" y="833.99688" as="targetPoint" />
          </mxGeometry>
        </mxCell>
        <mxCell id="Jmnt9u7fg5AIPMiEPAvG-85" value="1/4&amp;nbsp; SW -&lt;br&gt;??" style="shape=trapezoid;perimeter=trapezoidPerimeter;whiteSpace=wrap;html=1;fixedSize=1;fontSize=8;align=center;rotation=0;fillColor=#dae8fc;strokeColor=#6c8ebf;" parent="1" vertex="1">
          <mxGeometry x="1804.9900000000002" y="794" width="69" height="35" as="geometry" />
        </mxCell>
        <mxCell id="Jmnt9u7fg5AIPMiEPAvG-86" value="?? -&lt;br&gt;1/4 SW" style="shape=trapezoid;perimeter=trapezoidPerimeter;whiteSpace=wrap;html=1;fixedSize=1;fontSize=8;align=center;rotation=0;fillColor=#dae8fc;strokeColor=#6c8ebf;" parent="1" vertex="1">
          <mxGeometry x="1804.9900000000002" y="922.13" width="69" height="35" as="geometry" />
        </mxCell>
        <mxCell id="Jmnt9u7fg5AIPMiEPAvG-87" value="Nitrogen Flight Line" style="text;html=1;align=center;verticalAlign=middle;resizable=0;points=[];autosize=1;strokeColor=#82b366;fillColor=#d5e8d4;" parent="1" vertex="1">
          <mxGeometry x="955.03" y="1040.41" width="130" height="30" as="geometry" />
        </mxCell>
        <mxCell id="Jmnt9u7fg5AIPMiEPAvG-88" value="Methanol Flight Line" style="text;html=1;align=center;verticalAlign=middle;resizable=0;points=[];autosize=1;strokeColor=#b85450;fillColor=#f8cecc;" parent="1" vertex="1">
          <mxGeometry x="1354.44" y="1040.41" width="130" height="30" as="geometry" />
        </mxCell>
        <mxCell id="Jmnt9u7fg5AIPMiEPAvG-89" value="Nitrous Flight Line" style="text;html=1;align=center;verticalAlign=middle;resizable=0;points=[];autosize=1;strokeColor=#6c8ebf;fillColor=#dae8fc;" parent="1" vertex="1">
          <mxGeometry x="1780" y="1050.91" width="120" height="30" as="geometry" />
        </mxCell>
        <mxCell id="H4ZSS06QnPCmLtV-XADn-8" style="edgeStyle=orthogonalEdgeStyle;rounded=0;orthogonalLoop=1;jettySize=auto;html=1;fillColor=#f8cecc;strokeColor=#b85450;" edge="1" parent="1" source="H4ZSS06QnPCmLtV-XADn-4">
          <mxGeometry relative="1" as="geometry">
            <mxPoint x="1520" y="400" as="targetPoint" />
          </mxGeometry>
        </mxCell>
        <mxCell id="H4ZSS06QnPCmLtV-XADn-16" style="edgeStyle=orthogonalEdgeStyle;rounded=0;orthogonalLoop=1;jettySize=auto;html=1;entryX=0;entryY=0;entryDx=79;entryDy=10;entryPerimeter=0;fillColor=#f8cecc;strokeColor=#b85450;" edge="1" parent="1" target="H4ZSS06QnPCmLtV-XADn-11">
          <mxGeometry relative="1" as="geometry">
            <mxPoint x="1420" y="440" as="sourcePoint" />
            <Array as="points">
              <mxPoint x="1420" y="460" />
            </Array>
          </mxGeometry>
        </mxCell>
        <mxCell id="H4ZSS06QnPCmLtV-XADn-4" value="Hose Nipple Tee" style="shape=tee;whiteSpace=wrap;html=1;rotation=-90;labelPosition=center;verticalLabelPosition=middle;align=center;verticalAlign=middle;dx=20;dy=20;fillColor=#f8cecc;strokeColor=#b85450;" vertex="1" parent="1">
          <mxGeometry x="1410.96" y="360" width="79" height="80" as="geometry" />
        </mxCell>
        <mxCell id="H4ZSS06QnPCmLtV-XADn-6" value="8mm Nipple - 1/4FBSPT" style="shape=trapezoid;perimeter=trapezoidPerimeter;whiteSpace=wrap;html=1;fixedSize=1;fontSize=8;align=center;rotation=90;fillColor=#f8cecc;strokeColor=#b85450;" vertex="1" parent="1">
          <mxGeometry x="1510" y="380.29" width="69" height="39.42" as="geometry" />
        </mxCell>
        <mxCell id="H4ZSS06QnPCmLtV-XADn-7" value="" style="verticalLabelPosition=bottom;aspect=fixed;html=1;verticalAlign=top;fillColor=#f8cecc;align=center;outlineConnect=0;shape=mxgraph.fluid_power.x11820;points=[[0.5,1,0]];rotation=90;strokeColor=#b85450;" vertex="1" parent="1">
          <mxGeometry x="1570" y="370.00000000000006" width="38.94" height="60" as="geometry" />
        </mxCell>
        <mxCell id="H4ZSS06QnPCmLtV-XADn-9" value="4 bar max guage" style="text;html=1;align=center;verticalAlign=middle;resizable=0;points=[];autosize=1;" vertex="1" parent="1">
          <mxGeometry x="1620" y="385" width="110" height="30" as="geometry" />
        </mxCell>
        <mxCell id="H4ZSS06QnPCmLtV-XADn-14" style="edgeStyle=orthogonalEdgeStyle;rounded=0;orthogonalLoop=1;jettySize=auto;html=1;entryX=0;entryY=0.455;entryDx=0;entryDy=0;entryPerimeter=0;fillColor=#f8cecc;strokeColor=#b85450;" edge="1" parent="1" source="H4ZSS06QnPCmLtV-XADn-11" target="H4ZSS06QnPCmLtV-XADn-13">
          <mxGeometry relative="1" as="geometry" />
        </mxCell>
        <mxCell id="H4ZSS06QnPCmLtV-XADn-17" style="edgeStyle=orthogonalEdgeStyle;rounded=0;orthogonalLoop=1;jettySize=auto;html=1;entryX=0.5;entryY=0;entryDx=0;entryDy=0;fillColor=#f8cecc;strokeColor=#b85450;" edge="1" parent="1" target="Jmnt9u7fg5AIPMiEPAvG-46">
          <mxGeometry relative="1" as="geometry">
            <mxPoint x="1420" y="560" as="sourcePoint" />
            <Array as="points">
              <mxPoint x="1420" y="735" />
              <mxPoint x="1419" y="735" />
            </Array>
          </mxGeometry>
        </mxCell>
        <mxCell id="H4ZSS06QnPCmLtV-XADn-11" value="Hose Nipple Tee" style="shape=tee;whiteSpace=wrap;html=1;rotation=-90;labelPosition=center;verticalLabelPosition=middle;align=center;verticalAlign=middle;dx=20;dy=20;fillColor=#f8cecc;strokeColor=#b85450;" vertex="1" parent="1">
          <mxGeometry x="1410.96" y="479.24" width="79" height="80" as="geometry" />
        </mxCell>
        <mxCell id="H4ZSS06QnPCmLtV-XADn-13" value="" style="verticalLabelPosition=bottom;align=center;html=1;verticalAlign=top;pointerEvents=1;dashed=0;shape=mxgraph.pid2valves.valve;valveType=gate;actuator=man;rotation=0;fillColor=#f8cecc;strokeColor=#b85450;" vertex="1" parent="1">
          <mxGeometry x="1520" y="501.03" width="39" height="40" as="geometry" />
        </mxCell>
        <mxCell id="H4ZSS06QnPCmLtV-XADn-15" value="Tank spray" style="text;html=1;align=center;verticalAlign=middle;resizable=0;points=[];autosize=1;" vertex="1" parent="1">
          <mxGeometry x="1559" y="511.03000000000003" width="80" height="30" as="geometry" />
        </mxCell>
        <mxCell id="H4ZSS06QnPCmLtV-XADn-18" value="" style="rounded=0;whiteSpace=wrap;html=1;fillColor=#f5f5f5;strokeColor=#666666;opacity=40;fontColor=#333333;" vertex="1" parent="1">
          <mxGeometry x="1729.01" y="310.41" width="399.99" height="539.59" as="geometry" />
        </mxCell>
      </root>
    </mxGraphModel>
  </diagram>
</mxfile>
